<?xml version="1.0" encoding="UTF-8" standalone="no"?>
<svg width="175px" height="48px" viewBox="0 0 175 48" version="1.1" xmlns="http://www.w3.org/2000/svg" xmlns:xlink="http://www.w3.org/1999/xlink">
    <!-- Generator: Sketch 39.1 (31720) - http://www.bohemiancoding.com/sketch -->
    <title>logo</title>
    <desc>Created with Sketch.</desc>
    <defs></defs>
    <g id="Home" stroke="none" stroke-width="1" fill="none" fill-rule="evenodd">
        <g transform="translate(-20.000000, -64.000000)" id=":--toolbar">
            <g>
                <g id="logo" transform="translate(20.000000, 64.000000)">
                    <path d="M59.3221477,23.5217391 L64.3154362,11.9565217 L69.3087248,23.5217391 L59.3221477,23.5217391 Z M65.9798658,7 L63.4832215,7 L51,35.0869565 L55.1610738,35.0869565 L58.4899329,26.826087 L70.4788188,26.826087 L74.0415302,35.0869565 L78.4630872,35.0869565 L65.9798658,7 Z M91.7785235,7.82608696 C91.7785235,7.82608696 93.442953,8.65217391 93.442953,10.3043478 L93.442953,17.7391304 C89.2818792,13.6086957 79.295302,16.9130435 79.295302,26 C79.295302,29.3043478 81.7919463,35.9130435 87.6174497,35.9130435 C92.6107383,35.9130435 93.442953,33.4347826 93.442953,33.4347826 L93.442953,35.9130435 L97.6040268,35.9130435 L97.6040268,7.82608696 L91.7785235,7.82608696 Z M93.442953,30.9565217 C93.442953,30.9565217 92.6107383,33.4347826 89.2818792,33.4347826 C86.7852349,33.4347826 83.4563758,30.9565217 83.4563758,26 C83.4563758,21.0434783 86.7852349,19.3913043 89.2818792,19.3913043 C91.7785235,19.3913043 93.442953,21.0434783 93.442953,21.0434783 L93.442953,30.9565217 Z M105.926174,16.0869565 L100.100671,16.0869565 C100.100671,16.0869565 101.151758,16.5388261 101.647758,17.6102609 C102.674711,19.8258261 110.144671,36.0303478 110.087248,35.9130435 L111.751678,35.9130435 L119.241611,16.0869565 L115.080537,16.0869565 L110.919463,30.1304348 L105.926174,16.0869565 Z M122.57047,18.5652174 L122.57047,35.9130435 L126.731544,35.9130435 L126.731544,16.0869565 L120.90604,16.0869565 C120.90604,16.0869565 122.57047,16.9130435 122.57047,18.5652174 Z M124.234899,12.7826087 C125.613879,12.7826087 126.731544,11.6731739 126.731544,10.3043478 C126.731544,8.93552174 125.613879,7.82608696 124.234899,7.82608696 C122.855919,7.82608696 121.738255,8.93552174 121.738255,10.3043478 C121.738255,11.6731739 122.855919,12.7826087 124.234899,12.7826087 Z M143.375839,21.8695652 L143.375839,17.7391304 C143.375839,17.7391304 140.879195,15.8085652 137.550336,15.8085652 C134.221477,15.8085652 131.056564,17.5177391 131.056564,21.6481739 C131.056564,26.361 140.04698,26.8087391 140.04698,30.9565217 C140.04698,34.5706522 134.360456,33.7445652 130.892617,30.1304348 L130.892617,35.0869565 C130.892617,35.0869565 133.389262,36.4549565 136.718121,36.4549565 C140.879195,36.4549565 144.208054,35.0869565 144.208054,30.1304348 C144.208054,25.002087 135.053691,24.3478261 135.053691,21.0434783 C135.053691,18.5652174 140.879195,18.5652174 143.375839,21.8695652 Z M148.369128,10.3043478 L148.369128,35.9130435 L152.530201,35.9130435 L152.530201,7.82608696 L146.704698,7.82608696 C146.704698,7.82608696 148.369128,8.65217391 148.369128,10.3043478 Z M170.838926,16.0869565 L165.671705,27.3068696 L160.020134,16.0869565 L154.194631,16.0869565 C154.194631,16.0869565 155.537826,16.3678261 156.37004,18.02 L163.670228,31.6537391 L157.52349,45 L161.684564,45 L175,16.0869565 L170.838926,16.0869565 Z" id="typeface-Advisly" fill="#263238"></path>
                    <path d="M34.85,0 L6.15,0 L0,6 L0,27 L20.5,48 L41,27 L41,6 L34.85,0 Z M35.875,27 L30.4863798,30.0463809 L27.9678511,26.8095148 L23.575,29.9523809 L20.6464232,26.8095148 L20.5,42 L22.55,42 L35.875,27 Z" id="symbol-advisly-copy" fill="#FF6D00"></path>
                </g>
            </g>
        </g>
    </g>
</svg>