<?xml version="1.0" encoding="UTF-8" standalone="no"?>
<svg width="20px" height="28px" viewBox="0 0 20 28" version="1.1" xmlns="http://www.w3.org/2000/svg" xmlns:xlink="http://www.w3.org/1999/xlink">
    <!-- Generator: Sketch 39.1 (31720) - http://www.bohemiancoding.com/sketch -->
    <title>Shape</title>
    <desc>Created with Sketch.</desc>
    <defs></defs>
    <g id="Home" stroke="none" stroke-width="1" fill="none" fill-rule="evenodd">
        <g transform="translate(-254.000000, -307.000000)" id=":--advice" fill="#758992">
            <g transform="translate(-12.000000, 138.000000)">
                <g id="1">
                    <g id="location" transform="translate(266.000000, 164.000000)">
                        <path d="M10,18.276995 C10.98434,18.276995 11.8232663,17.9374023 12.5167789,17.2582158 C13.2102903,16.5790293 13.5570472,15.757434 13.5570472,14.7934266 C13.5570472,13.8294214 13.2102903,13.007825 12.5167789,12.3286385 C11.8232663,11.649452 10.98434,11.3098593 10,11.3098593 C9.01565998,11.3098593 8.17673369,11.649452 7.48322112,12.3286385 C6.78970969,13.007825 6.44295284,13.8294214 6.44295284,14.7934266 C6.44295284,15.757434 6.78970969,16.5790293 7.48322112,17.2582158 C8.17673369,17.9374023 9.01565998,18.276995 10,18.276995 L10,18.276995 Z M10,5 C12.7740491,5 15.1342282,5.95305124 17.0805371,7.85915485 C19.0268449,9.76525845 20,12.0766827 20,14.7934266 C20,16.1517996 19.6532431,17.7073555 18.9597317,19.4600942 C18.2662191,21.2128329 17.4272929,22.8560246 16.4429528,24.3896715 C15.4586128,25.9233184 14.4854589,27.3583722 13.52349,28.6948363 C12.561521,30.0312993 11.744967,31.0938964 11.0738255,31.8826299 L10,33 C9.73154363,32.6932713 9.37360181,32.2879506 8.92617453,31.784038 C8.47874725,31.2801253 7.67337814,30.2723011 6.51006721,28.7605632 C5.34675629,27.2488263 4.32885908,25.7809074 3.4563756,24.3568075 C2.58389326,22.9327076 1.78970912,21.3223788 1.07382547,19.525821 C0.357941824,17.7292645 0,16.1517996 0,14.7934266 C0,12.0766827 0.97315505,9.76525845 2.91946286,7.85915485 C4.86577182,5.95305124 7.22595086,5 10,5 L10,5 Z" id="Shape"></path>
                    </g>
                </g>
            </g>
        </g>
    </g>
</svg>